<svg xmlns="http://www.w3.org/2000/svg" xmlns:xlink="http://www.w3.org/1999/xlink" id="svg378052" viewBox="0 0 1024 768"
     height="768px" width="1024px" version="1.1">
    <g id="title"
       style="font-style:normal;font-weight:300;font-size:72px;line-height:1;font-family:'Montserrat Light Alt1';font-variant-ligatures:none;text-align:center;text-anchor:middle"
       transform="translate(0 0)">
        <path id="path378061"
              style="font-style:normal;font-weight:300;font-size:72px;line-height:1;font-family:'Montserrat Light Alt1';font-variant-ligatures:none;text-align:center;text-anchor:middle"
              d="m 400.454,-2.952 c 3.96,2.232 8.424,3.312 13.392,3.312 3.6,0 6.912,-0.576 10.008,-1.8 3.096,-1.152 5.76,-2.952 7.92,-5.256 l -2.304,-2.376 c -4.104,4.032 -9.288,6.048 -15.48,6.048 -4.248,0 -8.064,-0.936 -11.52,-2.88 -3.456,-1.872 -6.192,-4.536 -8.136,-7.92 -2.016,-3.384 -2.952,-7.2 -2.952,-11.376 0,-4.176 0.936,-7.92 2.952,-11.304 1.944,-3.384 4.68,-6.048 8.136,-7.992 3.456,-1.872 7.272,-2.88 11.52,-2.88 6.264,0 11.448,2.016 15.48,5.976 l 2.304,-2.376 c -2.16,-2.304 -4.824,-4.032 -7.848,-5.184 -3.096,-1.152 -6.48,-1.8 -10.08,-1.8 -4.968,0 -9.432,1.152 -13.392,3.312 -3.96,2.232 -7.056,5.256 -9.36,9.144 -2.304,3.888 -3.384,8.28 -3.384,13.104 0,4.896 1.08,9.216 3.384,13.104 2.304,3.888 5.4,6.984 9.36,9.144 z"
              stroke-width="0" stroke-linejoin="miter" stroke-miterlimit="2" fill="#5292db" stroke="#5292db"
              transform="translate(0 333.64) translate(263.76874999999995 -0.759999999999998) scale(2) translate(-387.71 50.76)"></path>
        <path id="path378063"
              style="font-style:normal;font-weight:300;font-size:72px;line-height:1;font-family:'Montserrat Light Alt1';font-variant-ligatures:none;text-align:center;text-anchor:middle"
              d="m 470.71137,-17.64 c 3.744,-1.08 6.696,-2.952 8.71201,-5.688 2.01599,-2.736 3.096,-6.048 3.096,-10.08 0,-5.256 -1.8,-9.432 -5.40001,-12.456 -3.59999,-3.024 -8.568,-4.536 -14.904,-4.536 h -18.072 v 3.312 h 18.072 c 5.328,0 9.432,1.224 12.312,3.6 2.808,2.376 4.248,5.76 4.248,10.08 0,4.392 -1.44,7.776 -4.248,10.152 -2.88,2.376 -6.984,3.528 -12.312,3.528 h -18.072 V 0 h 3.67201 v -16.488 h 14.39999 c 1.44,0 3.096,-0.072 4.896,-0.36 L 479.13537,0 h 4.176 z"
              stroke-width="0" stroke-linejoin="miter" stroke-miterlimit="2" fill="#5292db" stroke="#5292db"
              transform="translate(0 333.64) translate(376.63548999999995 -0.03999999999999915) scale(2) translate(-444.14337 50.4)"></path>
        <path id="path378065"
              style="font-style:normal;font-weight:300;font-size:72px;line-height:1;font-family:'Montserrat Light Alt1';font-variant-ligatures:none;text-align:center;text-anchor:middle"
              d="m 514.466,-50.4 h -3.672 L 487.61,0 h 3.96 L 512.594,-46.368 533.69,0 h 3.96 z" stroke-width="0"
              stroke-linejoin="miter" stroke-miterlimit="2" fill="#5292db" stroke="#5292db"
              transform="translate(0 333.64) translate(463.56874999999997 -0.03999999999999915) scale(2) translate(-487.61 50.4)"></path>
        <path id="path378067"
              style="font-style:normal;font-weight:300;font-size:72px;line-height:1;font-family:'Montserrat Light Alt1';font-variant-ligatures:none;text-align:center;text-anchor:middle"
              d="m 579.77562,-45.864 c -3.6,-3.024 -8.568,-4.536 -14.904,-4.536 h -18.072 v 3.312 h 18.072 c 5.328,0 9.432,1.224 12.312,3.6 2.808,2.376 4.248,5.76 4.248,10.08 0,4.392 -1.44,7.776 -4.248,10.08 -2.88,2.376 -6.984,3.528 -12.312,3.528 h -18.072 V 0 h 3.67201 v -16.488 h 14.39999 c 6.336,0 11.304,-1.44 14.904,-4.464 3.60001,-3.024 5.4,-7.128 5.4,-12.456 0,-5.256 -1.79999,-9.432 -5.4,-12.456 z"
              stroke-width="0" stroke-linejoin="miter" stroke-miterlimit="2" fill="#5292db" stroke="#5292db"
              transform="translate(0 333.64) translate(581.94799 -0.03999999999999915) scale(2) translate(-546.79962 50.4)"></path>
        <path id="path378069"
              style="font-style:normal;font-weight:300;font-size:72px;line-height:1;font-family:'Montserrat Light Alt1';font-variant-ligatures:none;text-align:center;text-anchor:middle"
              d="m 630.54125,-45.864 c -3.6,-3.024 -8.568,-4.536 -14.904,-4.536 h -18.072 v 3.312 h 18.072 c 5.328,0 9.432,1.224 12.312,3.6 2.808,2.376 4.248,5.76 4.248,10.08 0,4.392 -1.44,7.776 -4.248,10.08 -2.88,2.376 -6.984,3.528 -12.312,3.528 h -18.072 V 0 h 3.672 v -16.488 h 14.4 c 6.336,0 11.304,-1.44 14.904,-4.464 3.6,-3.024 5.4,-7.128 5.4,-12.456 0,-5.256 -1.8,-9.432 -5.4,-12.456 z"
              stroke-width="0" stroke-linejoin="miter" stroke-miterlimit="2" fill="#5292db" stroke="#5292db"
              transform="translate(0 333.64) translate(683.47925 -0.03999999999999915) scale(2) translate(-597.56525 50.4)"></path>
    </g>
</svg>
